<svg width="100" height="125" viewBox="0 0 100 125" fill="none" xmlns="http://www.w3.org/2000/svg">
<path d="M29.1721 10C21.3271 10 14.9441 16.379 14.9441 24.219C14.9441 32.059 21.3271 38.438 29.1721 38.438C37.0171 38.438 43.4001 32.058 43.4001 24.218C43.4001 16.378 37.0171 10 29.1721 10ZM29.1721 36.437C22.4291 36.437 16.9441 30.956 16.9441 24.218C16.9441 17.48 22.4291 12 29.1721 12C35.9151 12 41.4001 17.481 41.4001 24.218C41.4001 30.955 35.9151 36.437 29.1721 36.437Z" fill="black"/>
<path d="M10 57.4349C10 62.5329 14.149 66.6789 19.25 66.6789C24.35 66.6789 28.5 62.5329 28.5 57.4349C28.5 52.3369 24.351 48.1909 19.25 48.1909C14.149 48.1909 10 52.3369 10 57.4349ZM19.25 50.1909C23.248 50.1909 26.5 53.4409 26.5 57.4349C26.5 61.4289 23.248 64.6789 19.25 64.6789C15.252 64.6789 12 61.4289 12 57.4349C12 53.4409 15.252 50.1909 19.25 50.1909Z" fill="black"/>
<path d="M16.21 58.435C16.762 58.435 17.21 57.988 17.21 57.435C17.21 56.312 18.125 55.3979 19.25 55.3979C19.802 55.3979 20.25 54.9509 20.25 54.3979C20.25 53.8449 19.802 53.3979 19.25 53.3979C17.022 53.3979 15.21 55.21 15.21 57.435C15.21 57.988 15.658 58.435 16.21 58.435Z" fill="black"/>
<path d="M27.4999 15.9529C23.8889 15.9529 20.9519 18.8899 20.9519 22.4979C20.9519 23.0509 21.3999 23.4979 21.9519 23.4979C22.5039 23.4979 22.9519 23.0509 22.9519 22.4979C22.9519 19.9919 24.9929 17.9529 27.4999 17.9529C28.0519 17.9529 28.4999 17.5059 28.4999 16.9529C28.4999 16.3999 28.0519 15.9529 27.4999 15.9529Z" fill="black"/>
<path d="M78.2261 57.128C78.6451 55.557 78.8691 53.936 78.8691 52.294C78.8691 41.96 70.4561 33.553 60.1151 33.553C49.7741 33.553 41.3601 41.959 41.3601 52.293C41.3601 62.628 49.7741 71.035 60.1151 71.035C60.5931 71.035 61.0731 70.999 61.5521 70.962C61.5511 71.015 61.5441 71.066 61.5441 71.118C61.5441 78.958 67.9271 85.336 75.7721 85.336C83.6171 85.336 90.0001 78.959 90.0001 71.12C90.0001 64.118 84.9041 58.295 78.2261 57.128ZM60.1151 69.036C50.8761 69.036 43.3601 61.525 43.3601 52.294C43.3601 43.063 50.8761 35.553 60.1151 35.553C69.3531 35.553 76.8691 43.063 76.8691 52.294C76.8691 53.87 76.6421 55.425 76.2111 56.924C76.0641 56.92 75.9191 56.902 75.7711 56.902C68.6641 56.902 62.7751 62.142 61.7261 68.955C61.1931 69.005 60.6521 69.036 60.1151 69.036ZM75.7721 83.337C69.0291 83.337 63.5441 77.857 63.5441 71.119C63.5441 64.381 69.0291 58.9 75.7721 58.9C82.5151 58.9 88.0001 64.382 88.0001 71.12C88.0001 77.858 82.5151 83.337 75.7721 83.337Z" fill="black"/>
<path d="M74.1 62.854C70.489 62.854 67.552 65.79 67.552 69.398C67.552 69.951 68 70.398 68.552 70.398C69.104 70.398 69.552 69.951 69.552 69.398C69.552 66.892 71.593 64.854 74.1 64.854C74.652 64.854 75.1 64.407 75.1 63.854C75.1 63.301 74.652 62.854 74.1 62.854Z" fill="black"/>
<path d="M60.1151 39.186C53.3241 39.186 47.8 44.707 47.8 51.493C47.8 52.046 48.248 52.493 48.8 52.493C49.352 52.493 49.8 52.046 49.8 51.493C49.8 45.81 54.4271 41.186 60.1151 41.186C60.6671 41.186 61.1151 40.739 61.1151 40.186C61.1151 39.633 60.6671 39.186 60.1151 39.186Z" fill="black"/>
<path d="M38.4589 63.3741L36.6979 66.5931C35.0319 69.6371 32.5409 72.1251 29.4949 73.7901L26.2739 75.5511C25.9529 75.7261 25.7529 76.0631 25.7529 76.4281C25.7529 76.7941 25.9529 77.1301 26.2739 77.3061L29.4949 79.0661C32.5409 80.7301 35.0319 83.2191 36.6969 86.2631L38.4579 89.4811C38.6349 89.8001 38.9719 90.0001 39.3369 90.0001C39.7019 90.0001 40.0389 89.8011 40.2139 89.4801L41.9759 86.2621C43.6419 83.2181 46.1319 80.7291 49.1779 79.0651L52.3989 77.3051C52.7199 77.1291 52.9199 76.7931 52.9199 76.4271C52.9199 76.0621 52.7199 75.7251 52.3989 75.5491L49.1779 73.7881C46.1329 72.1241 43.6419 69.6361 41.9759 66.5921L40.2139 63.3731C39.8619 62.7321 38.8099 62.7331 38.4589 63.3741ZM40.2219 67.5531C42.0719 70.9321 44.8369 73.6961 48.2189 75.5441L49.8339 76.4271L48.2189 77.3091C44.8369 79.1581 42.0709 81.9211 40.2219 85.3011L39.3369 86.9161L38.4529 85.3011C36.6029 81.9211 33.8369 79.1571 30.4549 77.3091L28.8399 76.4271L30.4549 75.5441C33.8369 73.6951 36.6029 70.9331 38.4529 67.5531L39.3369 65.9371L40.2219 67.5531Z" fill="black"/>
<path d="M52.62 22.6601C54.016 23.4241 55.158 24.5641 55.922 25.9601L56.779 27.5261C56.954 27.8461 57.291 28.0461 57.656 28.0461C58.022 28.0461 58.358 27.8471 58.533 27.5251L59.39 25.9601C60.153 24.5641 61.295 23.4241 62.691 22.6611L64.259 21.8051C64.58 21.6291 64.78 21.2931 64.78 20.9271C64.78 20.5611 64.58 20.2251 64.259 20.0491L62.691 19.1941C61.295 18.4301 60.154 17.2901 59.39 15.8951L58.533 14.3291C58.357 14.0081 58.021 13.8081 57.656 13.8081C57.291 13.8081 56.954 14.0071 56.779 14.3281L55.922 15.8941C55.158 17.2901 54.016 18.4301 52.621 19.1931L51.054 20.0491C50.733 20.2251 50.533 20.5621 50.533 20.9271C50.533 21.2921 50.733 21.6291 51.054 21.8051L52.62 22.6601ZM57.656 16.8901C58.596 18.5921 59.991 19.9861 61.694 20.9261C59.991 21.8661 58.596 23.2611 57.656 24.9621C56.716 23.2611 55.322 21.8661 53.618 20.9261C55.32 19.9861 56.715 18.5921 57.656 16.8901Z" fill="black"/>
<path d="M22.7819 80.8139C21.3099 80.0099 20.1069 78.8069 19.3029 77.3359L18.4039 75.6929C18.0519 75.0509 16.9989 75.0499 16.6489 75.6939L15.7509 77.3359C14.9459 78.8069 13.7419 80.0099 12.2709 80.8139L10.6279 81.7109C10.3069 81.8869 10.1069 82.2229 10.1069 82.5889C10.1069 82.9539 10.3059 83.2909 10.6269 83.4659L12.2709 84.3649C13.7429 85.1689 14.9459 86.3719 15.7509 87.8429L16.6489 89.4849C16.8249 89.8049 17.1609 90.0049 17.5259 90.0049C17.8909 90.0049 18.2279 89.8059 18.4029 89.4849L19.3019 87.8429C20.1069 86.3719 21.3099 85.1689 22.7819 84.3639L24.4249 83.4659C24.7459 83.2909 24.9449 82.9539 24.9449 82.5889C24.9449 82.2229 24.7449 81.8869 24.4239 81.7109L22.7819 80.8139ZM21.8229 82.6099C20.0149 83.5979 18.5359 85.0759 17.5479 86.8819L17.5259 86.9219L17.5049 86.8819C16.5159 85.0749 15.0379 83.5979 13.2299 82.6109L13.1919 82.5899L13.2289 82.5699C15.0369 81.5819 16.5159 80.1039 17.5049 78.2969L17.5259 78.2579L17.5469 78.2979C18.5359 80.1049 20.0139 81.5819 21.8219 82.5699L21.8589 82.5899L21.8229 82.6099Z" fill="black"/>
<path d="M89.4789 19.6221L87.0449 18.2941C84.7849 17.0581 82.9369 15.2111 81.7009 12.9521L80.3699 10.5191C80.0179 9.87808 78.9669 9.87808 78.6149 10.5191L77.2839 12.9521C76.0479 15.2111 74.1999 17.0571 71.9389 18.2931L69.5049 19.6221C69.1839 19.7981 68.9839 20.1341 68.9839 20.5001C68.9839 20.8651 69.1839 21.2021 69.5049 21.3781L71.9389 22.7071C74.1989 23.9431 76.0469 25.7901 77.2839 28.0491L78.6149 30.4811C78.7919 30.8001 79.1279 31.0001 79.4929 31.0001C79.8579 31.0001 80.1949 30.8011 80.3699 30.4801L81.7009 28.0481C82.9369 25.7891 84.7849 23.9431 87.0459 22.7071L89.4799 21.3771C89.7999 21.2021 89.9999 20.8651 89.9999 20.5001C89.9999 20.1331 89.7999 19.7971 89.4789 19.6221ZM86.0869 20.9531C83.4899 22.3721 81.3669 24.4941 79.9469 27.0881L79.4929 27.9171L79.0389 27.0881C77.6189 24.4941 75.4959 22.3721 72.8989 20.9521L72.0719 20.5001L72.8999 20.0481C75.4969 18.6291 77.6199 16.5071 79.0399 13.9131L79.4939 13.0831L79.9479 13.9131C81.3679 16.5071 83.4909 18.6291 86.0879 20.0491L86.9149 20.5001L86.0869 20.9531Z" fill="black"/>
</svg>
