<svg width="110" height="135" viewBox="0 0 110 135" fill="none" xmlns="http://www.w3.org/2000/svg">
<path d="M99.9096 58.0321C99.8588 57.5634 99.4994 57.1923 99.0307 57.1337L71.5507 53.9149L59.6097 44.7157C60.0902 44.6376 60.4613 44.247 60.4613 43.747C60.4613 32.368 55.2424 26.106 45.7622 26.106H24.2423C23.6915 26.106 23.2423 26.5552 23.2423 27.106V35.1958C23.2423 35.7465 23.6915 36.1958 24.2423 36.1958H30.3634L33.7345 38.8247C33.6641 38.9028 33.586 38.9965 33.504 39.0942H25.4024C22.9024 39.0942 20.8633 41.1333 20.8633 43.6333C20.8633 46.1333 22.9024 48.1724 25.4024 48.1724H30.293C30.2813 48.8325 30.293 49.5122 30.3516 50.231C30.4024 50.7505 30.832 51.1294 31.3399 51.1294H31.4414C31.9922 51.0786 32.3906 50.5904 32.3399 50.0396C32.2813 49.3795 32.2695 48.7584 32.2813 48.1685H37.0196C36.6094 48.9185 36.4102 49.8873 36.6993 51.0591C34.711 51.2193 32.9805 52.6685 32.5899 54.731C32.3203 56.1607 32.7695 57.5396 33.6602 58.5591C32.4883 59.188 31.5899 60.2974 31.3321 61.6997C31.0235 63.3208 31.6328 64.8794 32.7735 65.9106C32.6445 66.8091 32.5742 67.7114 32.5742 68.6215V107.001C32.5742 110.321 35.2734 113.02 38.5937 113.02H58.0037C61.324 113.02 64.0232 110.321 64.0232 107.001V76.2625L85.4142 91.8015C85.5939 91.9304 85.7931 91.9929 86.0041 91.9929C86.2345 91.9929 86.465 91.9148 86.6447 91.7625C101.747 79.0515 99.9967 58.8835 99.9147 58.0325L99.9096 58.0321ZM47.7926 48.0011C47.5426 48.8722 47.5543 49.7706 47.7809 50.6222H43.3395V44.923H50.5778C50.4176 44.9934 50.2575 45.0441 50.0973 45.1223C48.9684 45.7434 48.1481 46.7629 47.7887 48.0012L47.7926 48.0011ZM54.8004 44.7316H56.3785L57.9371 45.9308L54.3668 44.8917C54.527 44.8722 54.6676 44.8214 54.7965 44.7316L54.8004 44.7316ZM58.4527 42.7316H42.0117L31.7227 34.6925V28.0909H45.7737C55.7857 28.0909 58.2427 35.8214 58.4537 42.7319L58.4527 42.7316ZM25.2497 28.0906H29.7185V34.1804H25.2497V28.0906ZM25.402 46.1726C24.0036 46.1726 22.8629 45.032 22.8629 43.6335C22.8629 42.2351 24.0035 41.0944 25.402 41.0944H32.1637C31.4528 42.3756 30.7653 44.0749 30.4528 46.1725L25.402 46.1726ZM34.4918 41.0828H36.6402L41.0386 44.5242C41.1285 44.5946 41.2301 44.6453 41.3394 44.6844V46.1727H32.4683C32.8589 43.8719 33.7378 42.1727 34.4878 41.0946L34.4918 41.0828ZM41.3512 48.1726C41.3512 48.1726 41.3512 51.0124 41.3825 51.7624L38.8825 51.2937C38.8825 51.2937 37.613 49.1335 39.7731 48.1726L41.3512 48.1726ZM34.5621 55.1023C34.6911 54.4305 35.0621 53.8523 35.6324 53.4734C36.0621 53.1844 36.5543 53.032 37.0621 53.032C37.2223 53.032 37.3825 53.0516 37.5426 53.0711L41.8434 53.8797C42.5153 54.0086 43.0934 54.3797 43.4723 54.95C43.8512 55.5086 43.9918 56.1883 43.8708 56.8484C43.7418 57.5203 43.3707 58.0984 42.8004 58.4773C42.2419 58.8562 41.5622 58.9968 40.9021 58.8757L36.6013 58.0671C35.9294 57.9382 35.3513 57.5671 34.9724 56.9968C34.5934 56.4382 34.4528 55.7585 34.5739 55.0984L34.5621 55.1023ZM33.3004 62.0711C33.4294 61.3993 33.8004 60.8211 34.3707 60.4422C34.8004 60.1532 35.2926 60.0008 35.8004 60.0008C35.9606 60.0008 36.1208 60.0204 36.2809 60.0399L40.5817 60.8485C41.9606 61.1102 42.8708 62.4383 42.6129 63.8173C42.3512 65.1962 41.0231 66.0985 39.6441 65.8485L35.3433 65.0399C33.9644 64.7782 33.0542 63.4501 33.3121 62.0711L33.3004 62.0711ZM62.0304 107.001C62.0304 109.22 60.2218 111.021 58.0109 111.021H38.6009C36.3821 111.021 34.5814 109.212 34.5814 107.001V68.6221C34.5814 68.0518 34.6205 67.4932 34.6713 66.9229C34.7728 66.9542 34.8627 66.9933 34.9603 67.0011L39.2611 67.8097C39.5424 67.8604 39.8315 67.8878 40.101 67.8878C42.2416 67.8878 44.1518 66.3683 44.5619 64.1886C44.7924 62.9972 44.5306 61.7902 43.8509 60.7902C43.7494 60.6417 43.6205 60.5089 43.4994 60.3683C44.6713 59.7394 45.558 58.6183 45.8197 57.2199C46.1712 55.3918 45.3509 53.5988 43.89 52.6105H48.89C49.4798 53.2394 50.2103 53.7199 51.0619 53.9699L56.1713 55.4582L58.7807 58.5871C60.9018 61.5168 62.019 64.9855 62.019 68.6071V106.986L62.0304 107.001ZM85.9524 89.7241L64.0304 73.7941V68.6222C64.0304 64.5831 62.7804 60.712 60.3702 57.3842L59.6202 56.4858C59.6202 56.4858 60.4093 56.7046 60.4991 56.7046C60.9288 56.7046 61.3273 56.4233 61.4601 55.9858C61.6085 55.4546 61.3116 54.896 60.7804 54.7475L51.632 52.0756C50.9132 51.8647 50.3117 51.3842 49.9523 50.724C49.5929 50.0638 49.5031 49.3021 49.7218 48.5756C49.9328 47.8569 50.4132 47.2553 51.0734 46.8959C51.7336 46.5365 52.4953 46.4467 53.2218 46.6654L62.2921 49.3138L70.5538 55.6849C70.6944 55.7943 70.8624 55.8646 71.0421 55.8842L97.9641 59.0444C98.1126 62.8256 98.0032 79.0834 85.9441 89.7434L85.9524 89.7241Z" fill="black"/>
<path d="M64.1138 58.4422C63.9224 57.9227 63.352 57.6531 62.8326 57.8406C62.313 58.032 62.0435 58.6023 62.231 59.1218C62.2818 59.2703 63.6021 62.8835 66.4615 65.1101C66.6412 65.2507 66.8599 65.3211 67.0709 65.3211C67.3717 65.3211 67.6607 65.1921 67.8599 64.9304C68.1998 64.489 68.1217 63.8718 67.6881 63.532C65.2975 61.6609 64.1178 58.4734 64.11 58.4422L64.1138 58.4422Z" fill="black"/>
<path d="M20.2026 32.0432C20.7534 32.0432 21.2026 31.594 21.2026 31.0432C21.2026 30.4924 20.7534 30.0432 20.2026 30.0432H19.2026C18.6519 30.0432 18.2026 30.4924 18.2026 31.0432C18.2026 31.594 18.6519 32.0432 19.2026 32.0432H20.2026Z" fill="black"/>
<path d="M17.2026 31.0432C17.2026 30.4924 16.7534 30.0432 16.2026 30.0432H15.0034C14.4526 30.0432 14.0034 30.4924 14.0034 31.0432C14.0034 31.594 14.4526 32.0432 15.0034 32.0432H16.2026C16.7534 32.0432 17.2026 31.594 17.2026 31.0432Z" fill="black"/>
<path d="M13 31.0432C13 30.4924 12.5508 30.0432 12 30.0432H11C10.4492 30.0432 10 30.4924 10 31.0432C10 31.594 10.4492 32.0432 11 32.0432H12C12.5508 32.0432 13 31.594 13 31.0432Z" fill="black"/>
<path d="M19.2106 28.5241L20.1012 28.985C20.2497 29.0553 20.402 29.0944 20.5622 29.0944C20.9215 29.0944 21.2731 28.8952 21.4528 28.5553C21.7028 28.067 21.5114 27.4655 21.0231 27.2037L20.1325 26.7428C19.6442 26.4928 19.0427 26.6842 18.7809 27.1725C18.5309 27.6608 18.7223 28.2623 19.2106 28.5241Z" fill="black"/>
<path d="M17.5428 25.4222L16.5116 24.891C16.0233 24.641 15.4218 24.8324 15.16 25.3207C14.91 25.8089 15.1014 26.4105 15.5897 26.6723L16.6209 27.2035C16.7694 27.2738 16.9217 27.3129 17.0819 27.3129C17.4412 27.3129 17.7928 27.1137 17.9725 26.7738C18.2225 26.2856 18.0311 25.684 17.5428 25.4222Z" fill="black"/>
<path d="M12.1328 24.891L13.0234 25.3519C13.1718 25.4223 13.3242 25.4613 13.4843 25.4613C13.8437 25.4613 14.1953 25.2621 14.3749 24.9223C14.6249 24.434 14.4335 23.8325 13.9452 23.5707L13.0546 23.1097C12.5663 22.8597 11.9648 23.0511 11.703 23.5394C11.4413 24.0277 11.6445 24.6292 12.1328 24.891Z" fill="black"/>
<path d="M13.0233 36.7421L12.1327 37.203C11.6444 37.453 11.4413 38.0546 11.703 38.5546C11.8827 38.9062 12.2343 39.0937 12.5936 39.0937C12.7421 39.0937 12.9022 39.0546 13.0546 38.9843L13.9452 38.5234C14.4335 38.2734 14.6366 37.6718 14.3749 37.1718C14.1249 36.6835 13.5234 36.4804 13.0233 36.7421Z" fill="black"/>
<path d="M16.6327 34.891L15.6015 35.4223C15.1132 35.6723 14.9101 36.2738 15.1718 36.7739C15.3515 37.1254 15.703 37.3129 16.0624 37.3129C16.2108 37.3129 16.371 37.2739 16.5233 37.2036L17.5545 36.6723C18.0428 36.4223 18.2459 35.8207 17.9842 35.3207C17.7342 34.8324 17.1249 34.6293 16.6327 34.891Z" fill="black"/>
<path d="M21.4528 33.5431C21.2028 33.0548 20.6013 32.8517 20.1012 33.1134L19.2106 33.5744C18.7223 33.8244 18.5192 34.4259 18.7809 34.926C18.9606 35.2775 19.3122 35.465 19.6715 35.465C19.82 35.465 19.9801 35.426 20.1325 35.3556L21.0231 34.8947C21.5114 34.6447 21.7145 34.0432 21.4528 33.5431Z" fill="black"/>
<path d="M48.3008 71.832C44.6289 71.832 41.8594 77.6132 41.8594 85.281C41.8594 92.9529 44.6289 98.73 48.3008 98.73C51.9727 98.73 54.7422 92.9488 54.7422 85.281C54.7422 77.6091 51.9727 71.832 48.3008 71.832ZM48.3008 96.723C46.1992 96.723 43.8594 92.0238 43.8594 85.274C43.8594 78.5242 46.1992 73.825 48.3008 73.825C50.4024 73.825 52.7422 78.5242 52.7422 85.274C52.7422 92.0238 50.4024 96.723 48.3008 96.723Z" fill="black"/>
</svg>
